<?xml version="1.0" standalone="no"?>
<!DOCTYPE svg PUBLIC "-//W3C//DTD SVG 20010904//EN"
 "http://www.w3.org/TR/2001/REC-SVG-20010904/DTD/svg10.dtd">
<svg version="1.0" xmlns="http://www.w3.org/2000/svg"
 width="512.000000pt" height="512.000000pt" viewBox="0 0 512.000000 512.000000"
 preserveAspectRatio="xMidYMid meet">
<metadata>
Created by potrace 1.11, written by Peter Selinger 2001-2013
</metadata>
<g transform="translate(0.000000,512.000000) scale(0.100000,-0.100000)"
fill="#000000" stroke="none">
<path d="M529 4436 c-5 -4 -5 -87 0 -94 3 -5 42 -12 86 -15 160 -12 246 -50
284 -126 44 -85 44 -99 45 -1526 1 -748 -2 -1400 -6 -1450 -10 -113 -29 -180
-67 -232 -48 -66 -154 -108 -293 -115 -53 -3 -55 -6 -53 -63 l1 -40 119 4
c163 6 657 5 783 -2 56 -3 102 -3 103 1 7 43 4 92 -5 93 -6 0 -20 2 -31 4 -11
1 -51 6 -88 9 -186 18 -295 98 -321 236 -3 19 -9 46 -12 60 -10 37 -11 2901
-2 2892 4 -4 42 -96 83 -203 42 -106 79 -203 84 -214 5 -11 31 -76 57 -145 26
-69 55 -144 65 -167 11 -23 19 -44 19 -47 0 -3 20 -56 44 -118 24 -62 88 -225
141 -363 324 -835 433 -1116 485 -1250 32 -82 88 -224 123 -315 35 -91 94
-242 131 -335 l66 -171 41 1 41 0 28 75 c16 41 111 298 213 570 101 272 266
716 366 985 100 270 193 517 206 550 12 33 114 305 225 605 111 300 204 547
207 550 2 2 2 -664 1 -1480 -3 -1418 -4 -1488 -22 -1543 -36 -110 -112 -158
-271 -173 -75 -7 -106 -11 -117 -13 -4 0 -6 -22 -5 -48 l2 -48 160 4 c238 6
839 5 1006 -2 164 -7 160 -8 149 63 -4 30 -9 35 -35 36 -72 3 -171 16 -187 25
-10 5 -18 7 -18 4 0 -16 -98 50 -118 79 -59 86 -56 19 -57 1591 0 792 3 1465
7 1495 24 182 94 239 318 256 47 4 86 8 88 9 4 3 5 56 3 86 -1 12 -11 15 -48
13 -27 -2 -221 -6 -433 -8 -212 -3 -395 -5 -407 -6 -13 0 -23 -5 -23 -11 0 -7
-38 -114 -84 -238 -47 -124 -135 -361 -196 -526 -62 -165 -168 -451 -237 -635
-69 -184 -136 -366 -150 -405 -13 -38 -28 -79 -33 -90 -5 -11 -45 -117 -89
-235 -209 -564 -304 -816 -310 -828 -5 -9 -13 1 -24 30 -9 24 -84 223 -167
443 -83 220 -178 472 -211 560 -33 88 -64 169 -69 180 -5 11 -19 47 -30 80
-12 33 -26 69 -31 80 -8 19 -141 371 -384 1015 -59 157 -112 299 -119 315 -7
17 -34 87 -60 156 l-48 126 -51 -5 c-66 -7 -733 -7 -809 0 -32 3 -58 5 -59 4z"/>
</g>
</svg>
